<!-- icon666.com - MILLIONS OF FREE VECTOR ICONS --><svg viewBox="0 0 64 64" xmlns="http://www.w3.org/2000/svg"><g id="Car_park" data-name="Car park"><path d="m53.23 37.59.77 5.41h-30l.77-5.41a10.011 10.011 0 0 1 9.9-8.59h8.66a10.011 10.011 0 0 1 9.9 8.59z" fill="#a7a9ac"></path><path d="m55.39 57h-32.78a4.008 4.008 0 0 1 -3.96-4.57l.86-6a4 4 0 0 1 3.96-3.43h31.06a4 4 0 0 1 3.96 3.43l.86 6a4.008 4.008 0 0 1 -3.96 4.57z" fill="#006df0"></path><path d="m59.35 52.43-.86-6a4 4 0 0 0 -3.96-3.43h-10.83a35.912 35.912 0 0 1 -23.914 12.8 3.949 3.949 0 0 0 2.824 1.2h32.78a4.008 4.008 0 0 0 3.96-4.57z" fill="#005fd2"></path><path d="m54 43-.77-5.41a9.987 9.987 0 0 0 -3.158-5.959 35.9 35.9 0 0 1 -6.372 11.369z" fill="#929497"></path><path d="m23.25 37.72.75 5.28h-1l-2-2h-2a2.006 2.006 0 0 1 -2-2v-1a2.006 2.006 0 0 1 2-2h2.27a2.01 2.01 0 0 1 1.98 1.72z" fill="#004fac"></path><path d="m61 38v1a2.006 2.006 0 0 1 -2 2h-2l-2 2h-1l.75-5.28a2.01 2.01 0 0 1 1.98-1.72h2.27a2.006 2.006 0 0 1 2 2z" fill="#004fac"></path><path d="m31 57v2a2.006 2.006 0 0 1 -2 2h-4a2.006 2.006 0 0 1 -2-2v-2z" fill="#58595b"></path><path d="m55 57v2a2.006 2.006 0 0 1 -2 2h-4a2.006 2.006 0 0 1 -2-2v-2z" fill="#58595b"></path><circle cx="51" cy="50" fill="#f1f2f2" r="2"></circle><path d="m45 49-1 3h-10l-1-3z" fill="#ffcd00"></path><circle cx="27" cy="50" fill="#f1f2f2" r="2"></circle><path d="m14 56v5h-7v-5a2.006 2.006 0 0 1 2-2h3a2.006 2.006 0 0 1 2 2z" fill="#58595b"></path><path d="m9 25h3v29h-3z" fill="#a7a9ac"></path><path d="m3 7h16v18h-16z" fill="#ffcd00"></path><path d="m10 21v-3h2a4 4 0 0 0 0-8h-3a1 1 0 0 0 -1 1v10a1 1 0 0 0 2 0zm0-9h2a2 2 0 0 1 0 4h-2z" fill="#ed1c24"></path><g fill="#f1f2f2"><path d="m34.707 32.293a1 1 0 0 0 -1.414 0l-5 5a1 1 0 1 0 1.414 1.414l5-5a1 1 0 0 0 0-1.414z"></path><path d="m38.293 32.293-5 5a1 1 0 1 0 1.414 1.414l5-5a1 1 0 0 0 -1.414-1.414z"></path></g></g></svg>